<?xml version="1.0" encoding="utf-8"?>
<!-- Generator: Adobe Illustrator 22.1.0, SVG Export Plug-In . SVG Version: 6.00 Build 0)  -->
<svg version="1.1" id="Layer_1" xmlns="http://www.w3.org/2000/svg" xmlns:xlink="http://www.w3.org/1999/xlink" x="0px" y="0px"
	 viewBox="0 0 121 40" style="enable-background:new 0 0 121 40;" xml:space="preserve">
<style type="text/css">
	.st0{fill:#21BECA;}
	.st1{fill:#FFFFFF;}
</style>
<g>
	<path class="st0" d="M39.2,10.3c-0.6-1.1-1.2-2-1.7-3c-0.1-0.2,0-0.5,0.1-0.7c0.7-1.3,1.5-2.7,2.3-4C42-1,47.1-0.7,49.1,2.8
		c3,5.4,6.1,10.7,9.1,16c0.6,1.2,1.7,1.7,2.7,1.3c0.4-0.2,0.9-0.6,1.1-1c2.9-4.9,5.7-9.9,8.5-14.8c0.1-0.2,0.2-0.5,0.4-0.8
		c-0.3,0-0.6,0-0.8,0c-2.7,0-5.4,0-8.2,0c-0.5,0-1,0-1.5,0c-0.9,0-1.6,0.4-2,1.2c-1,1.7-1.9,3.4-2.9,5.1c-0.1,0.2-0.3,0.4-0.5,0.7
		c-0.6-1.1-1.2-2.2-1.8-3.2c-0.1-0.1,0-0.3,0.1-0.4c1-1.6,1.9-3.3,2.9-4.9C57.2,0.6,58.6,0,60.2,0C70.1,0,80,0,89.8,0
		c1.6,0,3.1,0,4.7,0c0.1,0,0.3,0,0.5,0.1c-0.1,0.2-0.1,0.3-0.2,0.5C94.6,1,94.2,1.5,94.1,2c-0.4,1.1-1.2,1.5-2.3,1.5
		c-5,0-10,0-15-0.1c-1.3,0-2.1,0.5-2.8,1.6c-2.5,4.5-5.1,9-7.7,13.5c-0.5,0.8-0.9,1.6-1.4,2.4c-1.7,3.1-5.7,3.8-8.2,1.5
		c-0.6-0.6-1-1.3-1.5-2c-2.9-5.1-5.8-10.2-8.7-15.3c-0.2-0.3-0.4-0.6-0.7-0.9c-1.1-1-2.6-0.8-3.3,0.5c-0.9,1.6-1.8,3.2-2.7,4.8
		C39.7,9.7,39.5,9.9,39.2,10.3z"/>
	<path class="st0" d="M17.9,3.5C18.7,4.8,19.3,6,20,7.1c2.2,3.8,4.3,7.6,6.5,11.4c0.1,0.2,0.3,0.4,0.4,0.6c0.9,1.4,2.6,1.4,3.5,0
		c0.7-1.1,1.3-2.2,1.9-3.3c0.5-0.8,1-1.6,1.5-2.6c0.6,1.1,1.2,2.1,1.7,3.1c0.1,0.2,0,0.6-0.1,0.8c-0.7,1.3-1.4,2.6-2.2,3.8
		c-2.1,3.5-7,3.5-9,0c-3.2-5.5-6.4-11.1-9.6-16.7c-0.4-0.8-0.9-1.5-1.2-2.3c-0.3-0.8,0.2-1.7,1-1.9C14.7,0,15,0,15.3,0
		c4.2,0,8.5,0,12.7,0c2.4,0,4.2,1,5.4,3.1c3,5.3,6.1,10.6,9.1,15.9c0.9,1.6,2.7,1.7,3.6,0.1c0.9-1.5,1.8-3.1,2.7-4.6
		c0.2-0.4,0.4-0.7,0.7-1.2c0.6,1.1,1.2,2.1,1.7,3.1c0.1,0.2,0,0.5-0.2,0.8c-0.6,1.2-1.3,2.4-2,3.6c-2.2,3.9-7.4,3.6-9.5-0.1
		c-2.9-5.2-5.9-10.4-8.9-15.6c-0.1-0.1-0.1-0.2-0.2-0.4c-0.5-1-1.3-1.4-2.4-1.4c-3,0.1-6,0-9,0C18.8,3.4,18.4,3.5,17.9,3.5z"/>
	<path d="M93.8,40c0.9-1.6,1.8-3.1,2.6-4.6c0.7-1.3,1.5-2.6,2.3-3.9c0.5-0.8,0.5-1.6,0-2.5c-3.1-5.3-6.2-10.6-9.3-16
		c-1-1.8-1.2-3.6-0.3-5.4c0.9-1.9,2.6-2.8,4.7-2.8c3.3,0,6.6,0,9.9,0c0.3,0,0.5,0.1,0.7,0.4c1.7,2.8,3.5,5.6,5.2,8.4
		c1.2,2,1.2,3.9,0,5.9c-3.9,6.6-7.7,13.2-11.5,19.9c-0.2,0.4-0.4,0.5-0.9,0.5C96.1,40,95,40,93.8,40z M101.4,26.8
		c1.8-3,3.4-6,5.2-8.9c0.6-1,0.6-1.8,0-2.7c-1.1-1.8-2.2-3.6-3.2-5.5c-1-1.7-0.9-1.7-2.9-1.7c-2.1,0-4.2,0.1-6.4,0.1
		c-0.8,0-1.4,0.3-1.9,1c-0.4,0.7-0.4,1.4,0,2.2c2.7,4.7,5.4,9.3,8.1,14C100.7,25.8,101,26.3,101.4,26.8z"/>
	<path d="M34.3,28.5c0.5-0.9,0.9-1.7,1.4-2.6c0.4-0.7,1-0.8,1.7-0.8c2.8,0,5.6,0,8.3,0c2.5,0,5,0,7.5,0c1.5,0,3-0.1,4.5-0.1
		c3.6,0,7.2,0,10.8,0.1c1.2,0,2-0.4,2.5-1.4c0.9-1.6,1.8-3.2,2.7-4.8c0.1-0.2,0.3-0.5,0.5-0.8c0.6,1.1,1.2,2.1,1.7,3.1
		c0.1,0.2,0,0.5-0.1,0.7c-0.8,1.5-1.6,2.9-2.5,4.3c-1,1.5-2.4,2.3-4.2,2.3c-11.3,0-22.6,0-33.9,0C35,28.5,34.6,28.5,34.3,28.5z"/>
	<path d="M53.4,34.3c0.5-1,0.9-1.8,1.4-2.6c0.3-0.6,0.9-0.8,1.5-0.8c1,0,2.1,0,3.1,0c9.5,0,19,0,28.5,0c1.1,0,1.8-0.4,2.3-1.3
		c0.9-1.6,1.8-3.2,2.7-4.8c0.2-0.3,0.3-0.5,0.6-0.9c0.5,0.8,0.8,1.6,1.3,2.3c0.5,0.8,0.5,1.4,0,2.2c-0.8,1.1-1.4,2.4-2.1,3.6
		c-1,1.6-2.5,2.4-4.4,2.4c-11.4,0-22.7,0-34.1,0C54,34.3,53.8,34.3,53.4,34.3z"/>
	<path d="M90.1,18.2c0.6,1.1,1.2,2,1.7,3c0.1,0.2,0.1,0.5,0,0.7c-0.9,1.5-1.6,3.1-2.6,4.5c-2.1,3-6.6,2.9-8.6-0.2
		c-1.7-2.7-3.2-5.5-4.8-8.2c0,0,0-0.1,0-0.2c1.2,0,2.4,0,3.5,0c0.2,0,0.4,0.3,0.5,0.5c1,1.8,2,3.6,3.1,5.4c0.6,1,1.6,1.5,2.5,1.2
		c0.7-0.2,1.1-0.7,1.4-1.2c0.9-1.6,1.9-3.3,2.8-4.9C89.8,18.6,89.9,18.5,90.1,18.2z"/>
	<path d="M77.3,37.7c0,1.3-1,2.3-2.3,2.3c-1.3,0-2.3-1-2.3-2.3c0-1.3,1-2.3,2.3-2.3C76.3,35.3,77.3,36.3,77.3,37.7z"/>
	<path d="M77.3,11.9c0,1.3-1.1,2.3-2.4,2.3c-1.3,0-2.3-1.1-2.3-2.4c0-1.3,1-2.3,2.4-2.3C76.4,9.5,77.3,10.6,77.3,11.9z"/>
	<path d="M49.5,30.2c1.3,0,2.3,1,2.3,2.4c0,1.3-1.1,2.3-2.4,2.3c-1.3,0-2.3-1.1-2.3-2.4C47.1,31.1,48.2,30.1,49.5,30.2z"/>
	<path d="M81.2,9.5c1.4,0,2.3,1,2.3,2.4c0,1.3-1.1,2.3-2.4,2.3c-1.3,0-2.3-1.1-2.3-2.4C78.9,10.5,79.9,9.5,81.2,9.5z"/>
	<path class="st1" d="M101.4,26.8c-0.4-0.6-0.7-1.1-1-1.6c-2.7-4.7-5.4-9.3-8.1-14c-0.4-0.7-0.5-1.4,0-2.2c0.4-0.7,1-1,1.9-1
		c2.1,0,4.2-0.1,6.4-0.1c1.9,0,1.9,0,2.9,1.7c1,1.8,2.1,3.7,3.2,5.5c0.6,0.9,0.6,1.8,0,2.7C104.8,20.9,103.1,23.8,101.4,26.8z"/>
</g>
</svg>
